<svg width="21" height="21" viewBox="0 0 21 21" fill="none" xmlns="http://www.w3.org/2000/svg">
<g clip-path="url(#clip0_8427_1280)">
<path d="M10.4886 20.9772C16.275 20.9772 20.9658 16.2864 20.9658 10.5C20.9658 4.71358 16.275 0.0227661 10.4886 0.0227661C4.70217 0.0227661 0.0113525 4.71358 0.0113525 10.5C0.0113525 16.2864 4.70217 20.9772 10.4886 20.9772Z" fill="#40A459"/>
<path d="M10.4886 0.0227661C10.4089 0.0227661 10.3295 0.0239966 10.2502 0.0257603C10.23 0.0262114 10.2099 0.0266626 10.1897 0.0272778C10.1142 0.0293696 10.0387 0.0321587 9.96359 0.0358501C9.94415 0.0367935 9.92483 0.038147 9.90543 0.0391724C9.84825 0.0423306 9.7912 0.0459399 9.73423 0.0500005C9.70556 0.0520513 9.67693 0.05402 9.64834 0.0562759C9.58231 0.0615259 9.5164 0.0673501 9.45065 0.0738306C9.41665 0.0771938 9.38281 0.0809263 9.34897 0.0845767C9.30832 0.0890063 9.26776 0.0936411 9.22724 0.098522C9.19213 0.102747 9.15693 0.106807 9.12195 0.11136C14.2626 0.781022 18.2326 5.17671 18.2326 10.4999C18.2326 15.8231 14.2626 20.2188 9.12199 20.8884C9.15702 20.893 9.19213 20.8971 9.22728 20.9013C9.26776 20.9062 9.30836 20.9108 9.34901 20.9152C9.38289 20.9189 9.41677 20.9226 9.45069 20.926C9.51644 20.9325 9.58231 20.9383 9.64838 20.9435C9.67693 20.9458 9.7056 20.9478 9.73427 20.9498C9.7912 20.9539 9.84825 20.9575 9.90547 20.9606C9.92487 20.9617 9.94423 20.963 9.96363 20.9639C10.0388 20.9676 10.1142 20.9704 10.1898 20.9725C10.2099 20.9731 10.2301 20.9736 10.2502 20.974C10.3295 20.9758 10.4089 20.977 10.4886 20.977C16.2751 20.977 20.9659 16.2862 20.9659 10.4998C20.9659 4.7134 16.275 0.0227661 10.4886 0.0227661Z" fill="#378B4E"/>
<path d="M9.12201 9.58889L13.4928 7.08071C13.4928 7.08071 18.2739 8.09908 19.3774 6.08554L19.7254 5.4505L20.0281 6.10839C20.6565 7.47438 20.9887 8.99298 20.9887 10.5C20.9887 13.9736 19.268 17.2197 16.386 19.1831L16.0886 19.3857L9.12201 9.58889Z" fill="#898790"/>
<path d="M20.9658 10.5C20.9658 8.68947 20.5065 6.98618 19.6981 5.50031L19.3773 6.08556C18.9897 6.79287 18.4796 7.5161 17.9712 8.16673C18.1419 8.91711 18.2326 9.69797 18.2326 10.5C18.2326 13.426 17.033 16.0713 15.099 17.9721L16.0773 19.3939C19.0164 17.5382 20.9658 14.2329 20.9658 10.5Z" fill="#7A797F"/>
<path d="M10.4886 21C6.90159 21 3.59758 19.192 1.6504 16.1635L1.46472 15.8748L7.29989 10.9555L14.0158 20.3941L13.5878 20.5329C12.5866 20.8429 11.5439 21 10.4886 21Z" fill="#3D9AE3"/>
<path d="M14.0582 20.3777L13.3479 19.3607C12.0941 20.1537 10.6563 20.7107 9.11771 20.9111C9.56502 20.9694 10.0254 20.9773 10.4886 20.9773C11.7375 20.9773 12.9476 20.7785 14.0582 20.3777Z" fill="#1D81CE"/>
<path d="M7.29987 10.9555L9.12198 9.58893L16.1277 19.362L15.7871 19.5619C15.3061 19.8442 14.7998 20.0894 14.2823 20.2906L14.0157 20.3942L7.29987 10.9555Z" fill="white"/>
<path d="M14.0158 20.3942C14.7623 20.1286 15.4701 19.7812 16.1277 19.3621L15.1181 17.9537C14.5687 18.4964 13.9595 18.9787 13.3014 19.3902L14.0158 20.3942Z" fill="#E0E0E3"/>
<path d="M1.28665 15.5527C0.999131 15.031 0.754924 14.4816 0.560838 13.9197L0.474213 13.5892L12.7662 5.03363L14.5883 6.40023L1.46474 15.8748L1.28665 15.5527Z" fill="#FFCE00"/>
<path d="M15.6917 10.2628C15.0472 9.5897 11.8324 6.13032 11.8324 4.12256C11.8324 1.84935 13.6818 0 15.955 0C18.2281 0 20.0775 1.84935 20.0775 4.12256C20.0775 6.12896 16.8626 9.58941 16.2182 10.2628C16.0747 10.4126 15.8352 10.4127 15.6917 10.2628Z" fill="#CD2900"/>
<path d="M15.955 5.51191C14.9376 5.51191 14.1101 4.6843 14.1101 3.66703C14.1101 2.64976 14.9377 1.82214 15.955 1.82214C16.9723 1.82214 17.7998 2.64976 17.7998 3.66703C17.7998 4.6843 16.9723 5.51191 15.955 5.51191Z" fill="#891D00"/>
<path d="M5.93329 7.65292C7.12635 7.65292 8.09707 6.68224 8.09707 5.48914C8.09707 5.30046 7.94412 5.14748 7.75541 5.14748H6.38881C6.20014 5.14748 6.04715 5.30042 6.04715 5.48914C6.04715 5.67781 6.2001 5.8308 6.38881 5.8308H7.37392C7.21934 6.48299 6.63203 6.96964 5.93325 6.96964C5.11696 6.96964 4.45279 6.30547 4.45279 5.48918C4.45279 4.67288 5.11696 4.00872 5.93325 4.00872C6.29419 4.00872 6.64179 4.14005 6.91209 4.37847C7.05367 4.50333 7.26954 4.48975 7.39431 4.34829C7.51912 4.20678 7.50558 3.99088 7.36412 3.86607C6.96889 3.51743 6.46075 3.32544 5.93325 3.32544C4.74019 3.32544 3.76947 4.29611 3.76947 5.48922C3.76947 6.68232 4.74019 7.65292 5.93329 7.65292Z" fill="white"/>
</g>
<defs>
<clipPath id="clip0_8427_1280">
<rect width="21" height="21" fill="white"/>
</clipPath>
</defs>
</svg>
