<svg width="45" height="56" viewBox="0 0 45 56" fill="none" xmlns="http://www.w3.org/2000/svg">
<g filter="url(#filter0_d_8425_6347)">
<path d="M20.1582 3C8.15816 3 0.812603 11.9534 2.15817 23.4918C3.50373 35.0303 20.1582 50.0303 20.1582 50.0303C20.1582 50.0303 35.8045 35.5303 38.1582 23.4918C40.011 14.0151 32.1582 3 20.1582 3Z" fill="#008F47"/>
<path d="M20.0841 31.734C25.0342 31.734 29.0471 27.7211 29.0471 22.771C29.0471 17.8209 25.0342 13.808 20.0841 13.808C15.134 13.808 11.1212 17.8209 11.1212 22.771C11.1212 27.7211 15.134 31.734 20.0841 31.734Z" fill="white" fill-opacity="0.1"/>
<path d="M10.7137 27.3177L10.9701 22.4654L15.3006 24.6695L10.7137 27.3177Z" fill="white"/>
<path d="M29.0005 16.3074L29.3166 21.048L24.9849 19.0961L29.0005 16.3074Z" fill="white"/>
<path d="M12.7507 17.8821C13.494 16.6435 14.5629 15.6149 15.8502 14.8997C17.1375 14.1846 18.5977 13.8081 20.0841 13.8081C21.5705 13.8081 23.0307 14.1846 24.3179 14.8997C25.6052 15.6149 26.6742 16.6435 27.4174 17.8821" stroke="white" stroke-width="2.5" stroke-linecap="round"/>
<path d="M27.4174 26.0303C26.6742 27.269 25.6052 28.2976 24.318 29.0127C23.0307 29.7279 21.5705 30.1043 20.0841 30.1043C18.5977 30.1043 17.1375 29.7279 15.8502 29.0127C14.563 28.2976 13.494 27.269 12.7508 26.0303" stroke="white" stroke-width="2.5" stroke-linecap="round"/>
</g>
<defs>
<filter id="filter0_d_8425_6347" x="0" y="0" width="44.4285" height="55.0303" filterUnits="userSpaceOnUse" color-interpolation-filters="sRGB">
<feFlood flood-opacity="0" result="BackgroundImageFix"/>
<feColorMatrix in="SourceAlpha" type="matrix" values="0 0 0 0 0 0 0 0 0 0 0 0 0 0 0 0 0 0 127 0" result="hardAlpha"/>
<feOffset dx="2" dy="1"/>
<feGaussianBlur stdDeviation="2"/>
<feComposite in2="hardAlpha" operator="out"/>
<feColorMatrix type="matrix" values="0 0 0 0 0 0 0 0 0 0 0 0 0 0 0 0 0 0 0.25 0"/>
<feBlend mode="normal" in2="BackgroundImageFix" result="effect1_dropShadow_8425_6347"/>
<feBlend mode="normal" in="SourceGraphic" in2="effect1_dropShadow_8425_6347" result="shape"/>
</filter>
</defs>
</svg>
